<?xml version="1.0" encoding="UTF-8"?><svg id="Futura_copy" xmlns="http://www.w3.org/2000/svg" viewBox="0 0 1036 145"><defs><style>.cls-1{fill:#ae1917;}</style></defs><path class="cls-1" d="M36.82,84.3v46.23H19.64V16.69h19.46c9.54,0,16.74,.66,21.6,1.99,4.91,1.33,9.24,3.83,12.98,7.52,6.54,6.39,9.81,14.45,9.81,24.18,0,10.42-3.49,18.68-10.47,24.77-6.98,6.1-16.39,9.14-28.24,9.14h-7.96Zm0-15.93h6.41c15.78,0,23.67-6.07,23.67-18.21s-8.14-17.62-24.4-17.62h-5.68v35.83Z"/><path class="cls-1" d="M133.71,82.01l35.24,48.51h-21.01l-32.52-46.6h-3.1v46.6h-17.18V16.69h20.13c15.04,0,25.9,2.83,32.59,8.48,7.37,6.29,11.06,14.6,11.06,24.92,0,8.06-2.31,14.99-6.93,20.79-4.62,5.8-10.72,9.51-18.29,11.13Zm-21.38-13.05h5.46c16.27,0,24.4-6.22,24.4-18.65,0-11.65-7.91-17.47-23.74-17.47h-6.12v36.13Z"/><path class="cls-1" d="M197.19,16.69v113.84h-17.18V16.69h17.18Z"/><path class="cls-1" d="M228.79,16.69l31.48,78.89,31.93-78.89h18.8l-51.1,122.39L209.99,16.69h18.8Z"/><path class="cls-1" d="M364.4,102.88h-48.74l-12.68,27.65h-18.51L340.8,9.54l54.34,120.99h-18.8l-11.94-27.65Zm-7-16.15l-16.88-38.71-17.7,38.71h34.58Z"/><path class="cls-1" d="M424.17,32.84v97.69h-17.18V32.84h-26.17V16.69h69.45v16.15h-26.1Z"/><path class="cls-1" d="M520.77,33.65l-13.94,8.26c-2.61-4.52-5.09-7.47-7.45-8.85-2.46-1.57-5.63-2.36-9.51-2.36-4.77,0-8.73,1.35-11.87,4.06-3.15,2.65-4.72,6-4.72,10.03,0,5.56,4.13,10.03,12.39,13.42l11.35,4.65c9.24,3.74,16,8.29,20.28,13.68,4.28,5.38,6.41,11.98,6.41,19.8,0,10.47-3.49,19.12-10.47,25.95-7.03,6.88-15.75,10.32-26.17,10.32-9.88,0-18.04-2.92-24.48-8.77-6.34-5.85-10.3-14.08-11.87-24.7l17.4-3.83c.79,6.69,2.16,11.31,4.13,13.86,3.54,4.92,8.7,7.37,15.48,7.37,5.36,0,9.81-1.79,13.35-5.38,3.54-3.59,5.31-8.13,5.31-13.64,0-2.21-.31-4.24-.92-6.08-.62-1.84-1.57-3.54-2.88-5.09-1.3-1.55-2.99-3-5.05-4.35-2.06-1.35-4.52-2.64-7.37-3.87l-10.99-4.57c-15.58-6.59-23.37-16.22-23.37-28.9,0-8.55,3.27-15.7,9.81-21.46,6.54-5.8,14.67-8.7,24.4-8.7,13.12,0,23.37,6.39,30.75,19.17Z"/><path class="cls-1" d="M605.6,102.88h-48.74l-12.68,27.65h-18.51l56.33-120.99,54.34,120.99h-18.8l-11.94-27.65Zm-7-16.15l-16.88-38.71-17.7,38.71h34.58Z"/><path class="cls-1" d="M720.33,22.81v20.35c-9.93-8.31-20.2-12.46-30.82-12.46-11.7,0-21.55,4.2-29.57,12.61-8.06,8.36-12.09,18.58-12.09,30.67s4.03,22.02,12.09,30.23,17.94,12.31,29.64,12.31c6.04,0,11.18-.98,15.41-2.95,2.36-.98,4.8-2.31,7.34-3.98,2.53-1.67,5.2-3.69,8-6.05v20.72c-9.83,5.55-20.15,8.33-30.97,8.33-16.27,0-30.16-5.68-41.66-17.03-11.45-11.45-17.18-25.26-17.18-41.44,0-14.5,4.79-27.43,14.38-38.78,11.8-13.91,27.06-20.87,45.79-20.87,10.22,0,20.1,2.78,29.64,8.33Z"/><path class="cls-1" d="M753.3,61.22h49.1V16.69h17.18v113.84h-17.18v-53.16h-49.1v53.16h-17.18V16.69h17.18V61.22Z"/><path class="cls-1" d="M899.11,32.84h-45.64v27.35h44.31v16.15h-44.31v38.04h45.64v16.15h-62.82V16.69h62.82v16.15Z"/><path class="cls-1" d="M914.43,130.53V8.95l83.02,86.85V16.69h17.18v120.77l-83.02-86.63v79.7h-17.18Z"/></svg>